<?xml version="1.0" encoding="UTF-8"?>
<svg width="104px" height="87px" viewBox="0 0 104 87" version="1.1" xmlns="http://www.w3.org/2000/svg" xmlns:xlink="http://www.w3.org/1999/xlink">
    <!-- Generator: Sketch 47.1 (45422) - http://www.bohemiancoding.com/sketch -->
    <title>p2p-connection</title>
    <desc>Created with Sketch.</desc>
    <defs></defs>
    <g id="Page-1" stroke="none" stroke-width="1" fill="none" fill-rule="evenodd">
        <g id="p2p-connection" transform="translate(1.000000, 1.000000)">
            <g id="computer-blue" stroke-width="2">
                <rect id="Rectangle-2" stroke="#111111" transform="translate(80.500000, 17.000000) rotate(180.000000) translate(-80.500000, -17.000000) " x="59" y="3.55271368e-15" width="43" height="34" rx="1.5"></rect>
                <rect id="Rectangle-2-Copy" stroke="#111111" fill="#D2D8F9" transform="translate(80.500000, 12.500000) rotate(180.000000) translate(-80.500000, -12.500000) " x="59" y="3.55271368e-15" width="43" height="25" rx="1.5"></rect>
                <path d="M74.4758596,34 L73.1298257,45 L87.8145272,45 L85.9339255,34 L74.4758596,34 Z" id="Rectangle-8" stroke="#000000"></path>
                <rect id="Rectangle-2" stroke="#111111" transform="translate(21.500000, 57.000000) rotate(180.000000) translate(-21.500000, -57.000000) " x="-3.55271368e-15" y="40" width="43" height="34" rx="1.5"></rect>
            </g>
            <g id="connection" transform="translate(23.000000, 14.000000)" stroke="#DDDDDD" stroke-width="2.5" stroke-linecap="round" stroke-linejoin="round" stroke-dasharray="1,4,1,4">
                <path d="M5,1 L33,1" id="Line-Copy-50"></path>
                <path d="M1,1 L1,21.5" id="Line-Copy-52"></path>
                <path d="M60,36 L60,56.5" id="Line-Copy-53"></path>
                <path d="M24,57 L59,57" id="Line-Copy-51"></path>
            </g>
            <g id="computer-green" transform="translate(0.000000, 40.000000)" stroke-width="2">
                <rect id="Rectangle-2-Copy" stroke="#111111" fill="#CAE5CB" transform="translate(21.500000, 12.500000) rotate(180.000000) translate(-21.500000, -12.500000) " x="-3.55271368e-15" y="0" width="43" height="25" rx="1.5"></rect>
                <path d="M15.4758596,34 L14.1298257,45 L28.8145272,45 L26.9339255,34 L15.4758596,34 Z" id="Rectangle-8-Copy" stroke="#000000"></path>
            </g>
        </g>
    </g>
</svg>