<?xml version="1.0" encoding="UTF-8"?>
<svg width="241px" height="281px" viewBox="0 0 241 281" version="1.1" xmlns="http://www.w3.org/2000/svg" xmlns:xlink="http://www.w3.org/1999/xlink">
    <!-- Generator: Sketch 46 (44423) - http://www.bohemiancoding.com/sketch -->
    <title>file-o</title>
    <desc>Created with Sketch.</desc>
    <defs>
        <path d="M241,73.7806971 L241,265 C241,273.836556 233.836556,281 225,281 L16,281 C7.163444,281 0,273.836556 0,265 L0,16 C0,7.163444 7.163444,-9.09494702e-13 16,-9.09494702e-13 L169.105723,-9.09494702e-13 L207.296372,37.9606523 C207.381196,38.044966 218.615739,49.984981 241,73.7806971 Z" id="path-1"></path>
    </defs>
    <g id="Page-1" stroke="none" stroke-width="1" fill="none" fill-rule="evenodd">
        <g id="file-o">
            <g id="Combined-Shape">
                <use fill-opacity="0.2" fill="#D8D8D8" fill-rule="evenodd" xlink:href="#path-1"></use>
                <path stroke="#000000" stroke-width="21" d="M230.5,77.9431888 C220.721814,67.5485482 213.268053,59.6255122 208.138801,54.174169 C205.330697,51.189731 203.219429,48.9462505 201.805209,47.4439539 C201.09879,46.69354 200.566545,46.1283282 200.208883,45.748752 C199.963259,45.4881224 199.963259,45.4881224 199.807543,45.3230825 C199.667937,45.1765418 199.667937,45.1765418 199.894208,45.4076638 L164.775045,10.5 L16,10.5 C12.9624339,10.5 10.5,12.9624339 10.5,16 L10.5,265 C10.5,268.037566 12.9624339,270.5 16,270.5 L225,270.5 C228.037566,270.5 230.5,268.037566 230.5,265 L230.5,77.9431888 Z"></path>
            </g>
            <path d="M230.5,77.9427982 L200.0232,45.5402655 C199.98095,45.4953449 199.937946,45.4511381 199.894208,45.4076638 L164.775045,10.5 L150.5,10.5 L150.5,85 C150.5,88.0375661 152.962434,90.5 156,90.5 L230.5,90.5 L230.5,77.9427982 Z" id="Combined-Shape-Copy-2" stroke="#000000" stroke-width="21"></path>
        </g>
    </g>
</svg>