<?xml version="1.0" encoding="UTF-8"?>
<svg width="157px" height="133px" viewBox="0 0 157 133" version="1.1" xmlns="http://www.w3.org/2000/svg" xmlns:xlink="http://www.w3.org/1999/xlink">
    <!-- Generator: Sketch 46 (44423) - http://www.bohemiancoding.com/sketch -->
    <title>folder</title>
    <desc>Created with Sketch.</desc>
    <defs></defs>
    <g id="Page-1" stroke="none" stroke-width="1" fill="none" fill-rule="evenodd">
        <path d="M136,30 L67,30 L67,22 C67,13.163444 59.836556,6 51,6 L22,6 C13.163444,6 6,13.163444 6,22 L6,41.8339844 C6,42.0704061 6.01303276,42.3039793 6.03879427,42.5343403 L6.10435333,43.1205734 L6.05449015,43.7083497 C6.0182494,44.1355476 6,44.5662959 6,45 L6,112 C6,120.284271 12.7157288,127 21,127 L136,127 C144.284271,127 151,120.284271 151,112 L151,45 C151,36.7157288 144.284271,30 136,30 Z" id="folder" stroke="#000000" stroke-width="12"></path>
    </g>
</svg>