<svg xmlns="http://www.w3.org/2000/svg" xmlns:xlink="http://www.w3.org/1999/xlink" version="1.1" x="0px" y="0px" viewBox="0 0 100 125" style="enable-background:new 0 0 100 100;" xml:space="preserve"><g><path fill="rgba(255,255,255,.85)" d="M50,88.5c9.9,0,19.7-3.8,27.2-11.3c15-15,15-39.4,0-54.4c0,0,0,0,0,0c-15-15-39.4-15-54.4,0c-15,15-15,39.4,0,54.4   C30.3,84.7,40.1,88.5,50,88.5z M26.3,26.3c6.5-6.5,15.1-9.8,23.7-9.8s17.2,3.3,23.7,9.8c13.1,13.1,13.1,34.3,0,47.4   c-13.1,13.1-34.3,13.1-47.4,0C13.2,60.6,13.2,39.4,26.3,26.3z"/><path fill="rgba(255,255,255,.85)" d="M36.5,67.5c0.7,0,1.3-0.3,1.8-0.8l13-14.1c0.4-0.5,0.7-1.1,0.7-1.7V32c0-1.4-1.1-2.5-2.5-2.5S47,30.6,47,32v18L34.6,63.3   c-0.9,1-0.9,2.6,0.1,3.5C35.2,67.3,35.9,67.5,36.5,67.5z"/></g></svg>