<?xml version="1.0" encoding="UTF-8"?>
<svg width="146px" height="145px" viewBox="0 0 146 145" version="1.1" xmlns="http://www.w3.org/2000/svg" xmlns:xlink="http://www.w3.org/1999/xlink">
    <!-- Generator: Sketch 46 (44423) - http://www.bohemiancoding.com/sketch -->
    <title>network</title>
    <desc>Created with Sketch.</desc>
    <defs></defs>
    <g id="Page-1" stroke="none" stroke-width="1" fill="none" fill-rule="evenodd">
        <path d="M85.1421357,33.2013233 L51.9069276,51.1303199 C46.4130006,45.4975197 38.7399451,42 30.25,42 C13.5433863,42 0,55.5433863 0,72.25 C0,88.9566137 13.5433863,102.5 30.25,102.5 C38.4537105,102.5 45.894685,99.2343393 51.3438733,93.9320684 L85.2654841,110.224641 C85.090381,111.541545 85,112.885218 85,114.25 C85,130.956614 98.5433863,144.5 115.25,144.5 C131.956614,144.5 145.5,130.956614 145.5,114.25 C145.5,97.5433863 131.956614,84 115.25,84 C106.698476,84 98.9757337,87.5484402 93.473871,93.2532241 L60.1984519,76.5377849 C60.3971957,75.1371111 60.5,73.7055611 60.5,72.25 C60.5,70.8148385 60.4000571,69.40302 60.2067515,68.0211246 L93.207947,50.9675254 C98.7254618,56.8355316 106.55979,60.5 115.25,60.5 C131.956614,60.5 145.5,46.9566137 145.5,30.25 C145.5,13.5433863 131.956614,0 115.25,0 C98.5433863,0 85,13.5433863 85,30.25 C85,31.245744 85.0481112,32.230251 85.1421357,33.2013233 L85.1421357,33.2013233 Z" id="network" fill="#000000"></path>
    </g>
</svg>