<?xml version="1.0" encoding="UTF-8"?>
<svg width="82px" height="104px" viewBox="0 0 82 104" version="1.1" xmlns="http://www.w3.org/2000/svg" xmlns:xlink="http://www.w3.org/1999/xlink">
    <!-- Generator: Sketch 46 (44423) - http://www.bohemiancoding.com/sketch -->
    <title>pin-blue</title>
    <desc>Created with Sketch.</desc>
    <defs></defs>
    <g id="Page-1" stroke="none" stroke-width="1" fill="none" fill-rule="evenodd">
        <path d="M18.1000094,0 L63.4744057,0 L63.4744057,8.8817842e-16 C65.13126,-3.83092734e-15 66.4744057,1.34314575 66.4744057,3 C66.4744057,3.43074069 66.3816491,3.85643053 66.2024434,4.2481228 L61.1460305,15.2999878 L61.1460305,41.2999878 C66.8544104,43.6750344 71.1877438,46.341701 74.1460305,49.2999878 C78.5834607,53.7374179 79.9339053,57.8367727 81.1460305,61.2999878 C81.9541141,63.6087978 81.9541141,66.2754645 81.1460305,69.2999878 L58.1460305,69.2999878 L42.962955,102.300805 L42.962955,102.300805 C42.5012815,103.304265 41.3135563,103.74347 40.3100967,103.281796 C39.8765278,103.082319 39.5285832,102.734374 39.3291061,102.300805 L24.1460305,69.2999878 L1.14603053,69.2999878 C-0.382010178,68.3324851 -0.382010178,65.6658184 1.14603053,61.2999878 C3.4380916,54.7512419 5.04376304,52.0920285 8.14603053,49.2999878 C10.2142089,47.4386273 14.5475422,44.7719606 21.1460305,41.2999878 L21.1460305,15.2999878 L15.4414957,4.39007365 L15.4414957,4.39007365 C14.6737792,2.92181706 15.2416792,1.10920275 16.7099358,0.34148627 C17.1389526,0.117163598 17.6158854,2.32347891e-15 18.1000094,2.66453526e-15 Z" id="pin-blue" fill="#4184D1"></path>
    </g>
</svg>