<?xml version="1.0" encoding="UTF-8"?>
<svg width="96px" height="94px" viewBox="0 0 96 94" version="1.1" xmlns="http://www.w3.org/2000/svg" xmlns:xlink="http://www.w3.org/1999/xlink">
    <!-- Generator: Sketch 46 (44423) - http://www.bohemiancoding.com/sketch -->
    <title>replies copy</title>
    <desc>Created with Sketch.</desc>
    <defs></defs>
    <g id="Page-1" stroke="none" stroke-width="1" fill="none" fill-rule="evenodd" stroke-linecap="round">
        <g id="replies-copy" transform="translate(4.000000, 4.000000)" stroke="#979797" stroke-width="7">
            <path d="M73.9714902,62.1501078 C68.9437192,66.393958 63.0613702,70.7444284 56.3244431,75.2015191 C50.5158149,79.0444555 44.5333569,82.6613525 38.3770688,86.0522103 L38.3770644,86.0522022 C37.4095528,86.5851036 36.1932278,86.2327824 35.6603264,85.2652708 C35.4975378,84.969719 35.4121704,84.6377856 35.4121704,84.3003675 L35.4121704,67.0725708 M33.2806682,65.9327785 L30.893617,65.9327785 C13.8315435,65.9327785 0,52.0166264 0,34.8501829 L0,31.0825956 C0,13.9161521 13.8315435,0 30.893617,0 L57.106383,0 C74.1684565,0 88,13.9161521 88,31.0825956 L88,34.8501829 C88,45.5557792 82.6206263,54.9972699 74.4330975,60.587708" id="Combined-Shape"></path>
        </g>
    </g>
</svg>